<svg width="648" height="174" viewBox="0 0 648 174" fill="none" xmlns="http://www.w3.org/2000/svg">
<mask id="mask0_516_190" style="mask-type:luminance" maskUnits="userSpaceOnUse" x="0" y="0" width="648" height="174">
<path d="M647.088 0H0V173.609H647.088V0Z" fill="white"/>
</mask>
<g mask="url(#mask0_516_190)">
<path d="M175.013 151.832C174.693 151.448 173.347 152.857 170.431 152.857C168.475 153.041 166.521 152.485 164.955 151.299C163.389 150.113 162.325 148.384 161.972 146.452C160.395 140.817 159.703 134.972 159.922 129.126V48.4863C159.922 32.0039 152.125 19.813 136.531 11.9134C121.33 4.32274 104.595 0.302747 87.6028 0.160156C91.252 10.1839 93.0647 20.7827 92.9538 31.4488L93.5306 138.349C93.8919 141.686 94.824 144.936 96.2862 147.957C97.5369 150.352 99.0407 152.607 100.772 154.682C103.617 159.005 107.195 162.798 111.346 165.891C113.522 167.395 115.84 168.682 118.267 169.734C124.341 172.337 130.884 173.666 137.492 173.641C144.397 173.904 151.261 172.475 157.486 169.478C169.118 163.681 175.782 152.889 174.917 151.896" fill="#0D6BAF"/>
<path d="M46.8134 4.77155C35.3424 7.97408 22.3013 11.5609 14.0665 23.4743C10.5379 28.3083 8.4796 34.0573 8.13868 40.0314C7.80712 43.203 8.11246 46.4088 9.03683 49.4609C9.96119 52.513 11.486 55.35 13.5217 57.8054C15.193 59.5185 17.065 61.0239 19.0971 62.2889C20.659 63.1541 22.2876 63.8931 23.9674 64.4987C32.2663 67.7012 39.3475 67.0607 49.9534 65.9078C63.0266 64.4666 67.4484 62.0007 69.0185 61.0719C71.5427 59.6761 73.7906 57.8311 75.6512 55.6277C80.1691 50.2154 80.8099 43.9384 81.3226 37.9177C81.675 33.8184 81.5469 30.5519 79.3039 10.6321C78.8553 6.661 78.4708 3.3624 78.2145 1.02455C67.6367 0.569766 57.0529 1.76916 46.8455 4.57936" fill="#5685C5"/>
<path d="M70.5245 160.863C74.0278 157.168 76.7616 152.813 78.567 148.053C81.1945 141.007 80.105 137.036 79.8487 121.92C79.8487 118.718 79.8486 109.527 80.3934 90.92C80.5536 82.9777 80.7459 76.5086 80.8741 72.2812C71.8496 74.102 62.7377 75.4596 53.5742 76.3485C44.2995 76.8069 35.0972 78.2236 26.1143 80.5758C19.0287 83.0217 12.8955 87.6388 8.58732 93.7702C2.56554 101.958 -0.465482 111.962 -5.25638e-06 122.113C-5.25638e-06 136.673 4.58203 148.064 13.746 156.284C18.539 160.719 24.1997 164.113 30.371 166.251C36.5422 168.39 43.0899 169.227 49.601 168.709C57.1715 167.903 64.4142 165.193 70.6527 160.831" fill="#5685C5"/>
<path d="M235.445 105.043C230.671 105.115 225.927 104.267 221.474 102.545C217.503 100.974 213.894 98.6092 210.868 95.5959C207.903 92.5825 205.6 88.9827 204.108 85.0275C200.935 76.4068 200.935 66.9392 204.108 58.3185C205.607 54.3671 207.909 50.7688 210.868 47.7501C213.894 44.7368 217.503 42.3721 221.474 40.8006C230.49 37.4712 240.399 37.4712 249.415 40.8006C253.39 42.3648 257 44.7304 260.021 47.7501C262.98 50.7688 265.282 54.3671 266.782 58.3185C269.954 66.9392 269.954 76.4068 266.782 85.0275C265.29 88.9827 262.987 92.5825 260.021 95.5959C257 98.6156 253.39 100.981 249.415 102.545C244.962 104.267 240.219 105.115 235.445 105.043ZM252.619 71.673C252.897 66.3244 251.325 61.0432 248.165 56.7172C246.596 55.0122 244.699 53.6404 242.588 52.6835C240.478 51.7266 238.195 51.2042 235.878 51.1474C233.561 51.0906 231.256 51.5006 229.101 52.353C226.945 53.2053 224.984 54.4826 223.333 56.1087L222.724 56.7172C219.579 61.0502 218.008 66.3263 218.27 71.673C218.008 77.0197 219.579 82.2958 222.724 86.6288C224.293 88.3338 226.19 89.7056 228.301 90.6625C230.412 91.6194 232.694 92.1418 235.011 92.1986C237.328 92.2554 239.633 91.8453 241.789 90.993C243.944 90.1406 245.906 88.8634 247.557 87.2373C247.781 87.0451 247.973 86.8209 248.165 86.6288C251.325 82.3028 252.897 77.0216 252.619 71.673ZM297.638 67.7019H312.922V81.3126H297.638V144.562H281.072V29.5918H297.638V67.7019Z" fill="white"/>
<path d="M350.796 105.043C346.022 105.115 341.279 104.267 336.826 102.545C332.86 100.98 329.26 98.6146 326.252 95.5957C323.265 92.5926 320.95 88.9906 319.459 85.0274C316.286 76.4067 316.286 66.939 319.459 58.3183C320.958 54.359 323.272 50.7586 326.252 47.75C329.26 44.7311 332.86 42.3652 336.826 40.8005C345.852 37.4688 355.772 37.4688 364.798 40.8005C368.76 42.3726 372.358 44.7375 375.372 47.75C378.331 50.7686 380.633 54.3669 382.133 58.3183C385.305 66.939 385.305 76.4067 382.133 85.0274C380.641 88.9826 378.338 92.5824 375.372 95.5957C372.363 98.6146 368.764 100.98 364.798 102.545C360.345 104.267 355.602 105.115 350.828 105.043M367.97 71.6729C368.26 66.3278 366.699 61.046 363.549 56.7171C361.974 55.0151 360.074 53.6461 357.961 52.6914C355.847 51.7366 353.564 51.2155 351.245 51.1587C348.926 51.102 346.62 51.5109 344.462 52.3611C342.305 53.2113 340.34 54.4856 338.684 56.1086L338.075 56.7171C334.93 61.05 333.359 66.3261 333.621 71.6729C333.359 77.0196 334.93 82.2957 338.075 86.6286C339.65 88.3306 341.55 89.6995 343.663 90.6543C345.777 91.609 348.06 92.1302 350.379 92.1869C352.697 92.2437 355.004 91.8349 357.161 90.9846C359.319 90.1344 361.284 88.8601 362.94 87.2371C363.132 87.045 363.324 86.8208 363.549 86.6286C366.699 82.2997 368.26 77.0179 367.97 71.6729ZM415.489 144.69H398.859V29.7197H415.393L415.489 144.69Z" fill="white"/>
<path d="M455.958 36.381C459.325 36.3524 462.672 36.8938 465.859 37.9823C468.854 39.0003 471.635 40.5639 474.061 42.5939C476.481 44.6653 478.501 47.1617 480.021 49.9597C481.626 52.9577 482.71 56.2065 483.225 59.5673H490.371V31.5131H506.167V112.217H490.371V73.0819H483.001C482.294 76.2742 481.082 79.3335 479.412 82.1451C476.291 87.4301 471.346 91.3935 465.506 93.2899C462.405 94.3072 459.157 94.8049 455.893 94.763C452.088 94.8198 448.309 94.1232 444.775 92.7134C441.497 91.3928 438.521 89.4208 436.027 86.9169C433.461 84.3079 431.473 81.1868 430.196 77.7576C428.783 73.8914 428.088 69.7998 428.145 65.6841C428.085 61.5473 428.78 57.4342 430.196 53.5465C431.464 50.0941 433.452 46.9503 436.027 44.3232C438.525 41.7783 441.526 39.7822 444.839 38.4626C448.382 37.0811 452.155 36.3855 455.958 36.413M455.958 82.2411C457.656 82.2945 459.34 81.9171 460.852 81.1443C462.365 80.3715 463.657 79.2285 464.609 77.8217C466.907 74.2043 468.026 69.9638 467.813 65.6841C468.01 61.4464 466.891 57.2515 464.609 53.6746C463.77 52.5208 462.708 51.5464 461.487 50.8086C460.266 50.0709 458.909 49.5848 457.497 49.3789C456.085 49.173 454.645 49.2515 453.264 49.6097C451.883 49.968 450.587 50.5987 449.453 51.4649C448.643 52.1036 447.921 52.8466 447.306 53.6746C445.01 57.2455 443.89 61.4448 444.102 65.6841C443.891 69.9635 445.01 74.2035 447.306 77.8217C448.255 79.2306 449.547 80.3753 451.061 81.1484C452.574 81.9214 454.259 82.2975 455.958 82.2411ZM530.776 145.491H467.108C465.537 145.573 463.966 145.343 462.484 144.815C461.002 144.287 459.64 143.471 458.475 142.414C457.311 141.357 456.367 140.08 455.698 138.657C455.03 137.234 454.65 135.693 454.58 134.122C454.548 133.632 454.548 133.139 454.58 132.649V107.637H471.113V128.55C471.076 129.55 471.407 130.53 472.043 131.304C472.4 131.687 472.839 131.984 473.327 132.172C473.816 132.361 474.341 132.436 474.862 132.393H530.776V145.491ZM528.276 114.811H512.255V29.7197H528.276V114.811Z" fill="white"/>
<path d="M647.12 129.286H542.823V116.476H647.12V129.286ZM633.054 94.0578H570.123C568.553 94.1354 566.983 93.9027 565.504 93.373C564.024 92.8433 562.663 92.0271 561.499 90.971C560.336 89.915 559.392 88.6398 558.722 87.2187C558.052 85.7975 557.669 84.2582 557.595 82.6889C557.563 82.209 557.563 81.7276 557.595 81.2477V35.6758H631.804V48.4859H574.129V77.3086C574.085 78.3102 574.416 79.292 575.058 80.0628C575.415 80.4457 575.854 80.7426 576.342 80.9312C576.831 81.1198 577.356 81.1952 577.877 81.1517H633.022L633.054 94.0578Z" fill="white"/>
</g>
</svg>
