<svg xmlns="http://www.w3.org/2000/svg" viewBox="0 0 103.5 85.55"><defs><style>.cls-1{fill:#fff;}</style></defs><g id="레이어_2" data-name="레이어 2"><g id="레이어_1-2" data-name="레이어 1"><path class="cls-1" d="M54.27,69.74,79.21,49.31a3.93,3.93,0,0,0,.55-5.53l0,0a3.94,3.94,0,0,0-5.6-.52L55.43,59.07V3.76a3.76,3.76,0,1,0-7.51,0V58.91L29.35,43.24a3.93,3.93,0,1,0-5,6l25,20.45A3.93,3.93,0,0,0,54.27,69.74Z"/><path class="cls-1" d="M96.66,49.36V77.11a1.6,1.6,0,0,1-1.6,1.6H8.44a1.6,1.6,0,0,1-1.6-1.6V49.36a3.43,3.43,0,0,0-3.42-3.43h0A3.43,3.43,0,0,0,0,49.36V82.13a3.42,3.42,0,0,0,3.42,3.42h96.66a3.42,3.42,0,0,0,3.42-3.42V49.36a3.43,3.43,0,0,0-3.42-3.43h0A3.43,3.43,0,0,0,96.66,49.36Z"/></g></g></svg>