<svg width="48" height="59" viewBox="0 0 48 59" fill="none" xmlns="http://www.w3.org/2000/svg">
<path d="M6.85929 57H40.3434C43.043 57 45.2027 54.2284 45.2027 50.8134V8.1866C45.2027 4.7671 43.0295 2 40.3434 2H6.85929C4.15968 2 2 4.7671 2 8.1866V50.7999C2 54.2284 4.17768 57 6.85929 57Z" stroke="white" stroke-width="4" stroke-miterlimit="10"/>
<mask id="path-2-inside-1_652_381" fill="white">
<path d="M36.4924 9.87012H12.3939C11.6111 9.87012 10.9766 10.5047 10.9766 11.2874V11.9758C10.9766 12.7586 11.6111 13.3931 12.3939 13.3931H36.4924C37.2751 13.3931 37.9096 12.7586 37.9096 11.9758V11.2874C37.9096 10.5047 37.2751 9.87012 36.4924 9.87012Z"/>
</mask>
<path d="M36.4924 9.87012H12.3939C11.6111 9.87012 10.9766 10.5047 10.9766 11.2874V11.9758C10.9766 12.7586 11.6111 13.3931 12.3939 13.3931H36.4924C37.2751 13.3931 37.9096 12.7586 37.9096 11.9758V11.2874C37.9096 10.5047 37.2751 9.87012 36.4924 9.87012Z" fill="white"/>
<path d="M12.3939 9.87012V13.8701H36.4924V9.87012V5.87012H12.3939V9.87012ZM36.4924 9.87012V13.8701C35.066 13.8701 33.9096 12.7138 33.9096 11.2874H37.9096H41.9096C41.9096 8.29553 39.4843 5.87012 36.4924 5.87012V9.87012ZM37.9096 11.2874H33.9096V11.9758H37.9096H41.9096V11.2874H37.9096ZM37.9096 11.9758H33.9096C33.9096 10.5494 35.066 9.39311 36.4924 9.39311V13.3931V17.3931C39.4843 17.3931 41.9096 14.9677 41.9096 11.9758H37.9096ZM36.4924 13.3931V9.39311H12.3939V13.3931V17.3931H36.4924V13.3931ZM12.3939 13.3931V9.39311C13.8202 9.39311 14.9766 10.5494 14.9766 11.9758H10.9766H6.97656C6.97656 14.9677 9.40196 17.3931 12.3939 17.3931V13.3931ZM10.9766 11.9758H14.9766V11.2874H10.9766H6.97656V11.9758H10.9766ZM10.9766 11.2874H14.9766C14.9766 12.7138 13.8202 13.8701 12.3939 13.8701V9.87012V5.87012C9.40196 5.87012 6.97656 8.29553 6.97656 11.2874H10.9766Z" fill="white" mask="url(#path-2-inside-1_652_381)"/>
<mask id="path-4-inside-2_652_381" fill="white">
<path d="M36.4924 21.2256H12.3939C11.6111 21.2256 10.9766 21.8601 10.9766 22.6429V23.3313C10.9766 24.114 11.6111 24.7486 12.3939 24.7486H36.4924C37.2751 24.7486 37.9096 24.114 37.9096 23.3313V22.6429C37.9096 21.8601 37.2751 21.2256 36.4924 21.2256Z"/>
</mask>
<path d="M36.4924 21.2256H12.3939C11.6111 21.2256 10.9766 21.8601 10.9766 22.6429V23.3313C10.9766 24.114 11.6111 24.7486 12.3939 24.7486H36.4924C37.2751 24.7486 37.9096 24.114 37.9096 23.3313V22.6429C37.9096 21.8601 37.2751 21.2256 36.4924 21.2256Z" fill="white"/>
<path d="M12.3939 21.2256V25.2256H36.4924V21.2256V17.2256H12.3939V21.2256ZM36.4924 21.2256V25.2256C35.066 25.2256 33.9096 24.0693 33.9096 22.6429H37.9096H41.9096C41.9096 19.651 39.4842 17.2256 36.4924 17.2256V21.2256ZM37.9096 22.6429H33.9096V23.3313H37.9096H41.9096V22.6429H37.9096ZM37.9096 23.3313H33.9096C33.9096 21.9049 35.066 20.7486 36.4924 20.7486V24.7486V28.7486C39.4842 28.7486 41.9096 26.3232 41.9096 23.3313H37.9096ZM36.4924 24.7486V20.7486H12.3939V24.7486V28.7486H36.4924V24.7486ZM12.3939 24.7486V20.7486C13.8202 20.7486 14.9766 21.9049 14.9766 23.3313H10.9766H6.97656C6.97656 26.3232 9.40197 28.7486 12.3939 28.7486V24.7486ZM10.9766 23.3313H14.9766V22.6429H10.9766H6.97656V23.3313H10.9766ZM10.9766 22.6429H14.9766C14.9766 24.0693 13.8202 25.2256 12.3939 25.2256V21.2256V17.2256C9.40197 17.2256 6.97656 19.651 6.97656 22.6429H10.9766Z" fill="white" mask="url(#path-4-inside-2_652_381)"/>
<mask id="path-6-inside-3_652_381" fill="white">
<path d="M36.4924 32.582H12.3939C11.6111 32.582 10.9766 33.2166 10.9766 33.9993V34.6877C10.9766 35.4705 11.6111 36.105 12.3939 36.105H36.4924C37.2751 36.105 37.9096 35.4705 37.9096 34.6877V33.9993C37.9096 33.2166 37.2751 32.582 36.4924 32.582Z"/>
</mask>
<path d="M36.4924 32.582H12.3939C11.6111 32.582 10.9766 33.2166 10.9766 33.9993V34.6877C10.9766 35.4705 11.6111 36.105 12.3939 36.105H36.4924C37.2751 36.105 37.9096 35.4705 37.9096 34.6877V33.9993C37.9096 33.2166 37.2751 32.582 36.4924 32.582Z" fill="white"/>
<path d="M12.3939 32.582V36.582H36.4924V32.582V28.582H12.3939V32.582ZM36.4924 32.582V36.582C35.066 36.582 33.9096 35.4257 33.9096 33.9993H37.9096H41.9096C41.9096 31.0074 39.4842 28.582 36.4924 28.582V32.582ZM37.9096 33.9993H33.9096V34.6877H37.9096H41.9096V33.9993H37.9096ZM37.9096 34.6877H33.9096C33.9096 33.2613 35.066 32.105 36.4924 32.105V36.105V40.105C39.4842 40.105 41.9096 37.6796 41.9096 34.6877H37.9096ZM36.4924 36.105V32.105H12.3939V36.105V40.105H36.4924V36.105ZM12.3939 36.105V32.105C13.8202 32.105 14.9766 33.2613 14.9766 34.6877H10.9766H6.97656C6.97656 37.6796 9.40198 40.105 12.3939 40.105V36.105ZM10.9766 34.6877H14.9766V33.9993H10.9766H6.97656V34.6877H10.9766ZM10.9766 33.9993H14.9766C14.9766 35.4257 13.8202 36.582 12.3939 36.582V32.582V28.582C9.40198 28.582 6.97656 31.0074 6.97656 33.9993H10.9766Z" fill="white" mask="url(#path-6-inside-3_652_381)"/>
<mask id="path-8-inside-4_652_381" fill="white">
<path d="M36.4924 43.9385H12.3939C11.6111 43.9385 10.9766 44.573 10.9766 45.3558V46.0442C10.9766 46.8269 11.6111 47.4615 12.3939 47.4615H36.4924C37.2751 47.4615 37.9096 46.8269 37.9096 46.0442V45.3558C37.9096 44.573 37.2751 43.9385 36.4924 43.9385Z"/>
</mask>
<path d="M36.4924 43.9385H12.3939C11.6111 43.9385 10.9766 44.573 10.9766 45.3558V46.0442C10.9766 46.8269 11.6111 47.4615 12.3939 47.4615H36.4924C37.2751 47.4615 37.9096 46.8269 37.9096 46.0442V45.3558C37.9096 44.573 37.2751 43.9385 36.4924 43.9385Z" fill="white"/>
<path d="M12.3939 43.9385V47.9385H36.4924V43.9385V39.9385H12.3939V43.9385ZM36.4924 43.9385V47.9385C35.066 47.9385 33.9096 46.7822 33.9096 45.3558H37.9096H41.9096C41.9096 42.3639 39.4843 39.9385 36.4924 39.9385V43.9385ZM37.9096 45.3558H33.9096V46.0442H37.9096H41.9096V45.3558H37.9096ZM37.9096 46.0442H33.9096C33.9096 44.6178 35.066 43.4615 36.4924 43.4615V47.4615V51.4615C39.4843 51.4615 41.9096 49.036 41.9096 46.0442H37.9096ZM36.4924 47.4615V43.4615H12.3939V47.4615V51.4615H36.4924V47.4615ZM12.3939 47.4615V43.4615C13.8202 43.4615 14.9766 44.6178 14.9766 46.0442H10.9766H6.97656C6.97656 49.0361 9.40196 51.4615 12.3939 51.4615V47.4615ZM10.9766 46.0442H14.9766V45.3558H10.9766H6.97656V46.0442H10.9766ZM10.9766 45.3558H14.9766C14.9766 46.7822 13.8202 47.9385 12.3939 47.9385V43.9385V39.9385C9.40196 39.9385 6.97656 42.3639 6.97656 45.3558H10.9766Z" fill="white" mask="url(#path-8-inside-4_652_381)"/>
</svg>
