<svg xmlns="http://www.w3.org/2000/svg" xmlns:xlink="http://www.w3.org/1999/xlink" viewBox="0 0 420.84 101.72"><defs><style>.cls-1{fill:currentColor;} .cls-2{fill:currentColor;} .cls-3{fill:url(#grad-blue);}.cls-4{fill:url(#grad-gray-1);}.cls-5{fill:url(#grad-red);}.cls-6{fill:url(#grad-gray-2);}</style><linearGradient id="grad-blue" x1="187.25" y1="58.14" x2="255.4" y2="58.14" gradientUnits="userSpaceOnUse"><stop offset="0" stop-color="#00000b"/><stop offset="0.15" stop-color="#071832"/><stop offset="0.35" stop-color="#0f3460"/><stop offset="0.54" stop-color="#154a83"/><stop offset="0.71" stop-color="#195a9d"/><stop offset="0.87" stop-color="#1c64ad"/><stop offset="1" stop-color="#1d67b2"/></linearGradient><linearGradient id="grad-gray-1" x1="231.48" y1="6.35" x2="249.14" y2="33.98" gradientUnits="userSpaceOnUse"><stop offset="0" stop-color="#ddd"/><stop offset="0.13" stop-color="#d4d3d3"/><stop offset="0.36" stop-color="#babab9"/><stop offset="0.65" stop-color="#91908f"/><stop offset="0.98" stop-color="#585655"/><stop offset="1" stop-color="#555352"/></linearGradient><linearGradient id="grad-red" x1="167.76" y1="18.91" x2="235.92" y2="18.91" gradientUnits="userSpaceOnUse"><stop offset="0" stop-color="#e72e16"/><stop offset="0.2" stop-color="#e12c1a"/><stop offset="0.47" stop-color="#d02527"/><stop offset="0.48" stop-color="#cf2428"/><stop offset="0.57" stop-color="#ca2228"/><stop offset="0.64" stop-color="#bc1e24"/><stop offset="0.78" stop-color="#961419"/><stop offset="0.97" stop-color="#5a0307"/><stop offset="1" stop-color="#500004"/></linearGradient><linearGradient id="grad-gray-2" x1="185.62" y1="65.48" x2="174.66" y2="42.84" xlink:href="#grad-gray-1"/></defs><g id="레이어_2" data-name="레이어 2"><g id="레이어_1-2" data-name="레이어 1"><path class="cls-1" d="M274.54,90.08V89.7c0-2.51-1.62-5.5-9.37-5.5H253.44v17.26h3.89v-14h8.06c4.68,0,5.28,1.23,5.28,2.3V90c0,1.11-.64,2.14-5.28,2.14h-7.92l1.28,3.27h5.63l6.79,6h5l-7-6.34C272.74,94.48,274.54,92.79,274.54,90.08Z"/><path class="cls-1" d="M288.23,83.82h-1.76c-7.2,0-10.7,2.91-10.7,8.89s3.5,8.89,10.7,8.89h1.76c7.19,0,10.69-2.9,10.69-8.89S295.42,83.82,288.23,83.82ZM295,92.71c0,4-1.93,5.6-6.88,5.6h-1.54c-5,0-6.89-1.57-6.89-5.6s1.93-5.59,6.89-5.59h1.54C293.07,87.12,295,88.69,295,92.71Z"/><path class="cls-1" d="M319.37,92.38a3.48,3.48,0,0,0,1.55-3V89c0-1.78-1-4.76-7.66-4.76H300.49v17.26h12.77c5.14,0,8.33-2,8.33-5.2v-.35A4,4,0,0,0,319.37,92.38Zm-15,1.67h8.51c2.17,0,4.75.31,4.75,1.81v.49c0,1.22-1.6,1.84-4.75,1.84h-8.51ZM317,89.33c0,.47,0,1.44-4.09,1.44h-8.51v-3.3h8.51c4.09,0,4.09,1,4.09,1.42Z"/><path class="cls-1" d="M335.32,83.82h-1.75c-7.2,0-10.7,2.91-10.7,8.89s3.5,8.89,10.7,8.89h1.75c7.2,0,10.7-2.9,10.7-8.89S342.52,83.82,335.32,83.82Zm6.78,8.89c0,4-1.93,5.6-6.89,5.6h-1.54c-4.95,0-6.88-1.57-6.88-5.6s1.93-5.59,6.88-5.59h1.54C340.17,87.12,342.1,88.69,342.1,92.71Z"/><polygon class="cls-1" points="346.3 87.47 354.89 87.47 354.89 101.46 358.78 101.46 358.78 87.47 367.58 87.47 367.58 84.2 346.3 84.2 346.3 87.47"/><rect class="cls-1" x="368.86" y="84.08" width="3.92" height="17.39"/><path class="cls-1" d="M385.31,98.4c-4.73,0-6.33-1.42-6.33-5.62,0-4.46,1.24-5.55,6.33-5.55a66.26,66.26,0,0,1,10.15,1l.89.17V85.05l-.61-.12a63.08,63.08,0,0,0-10.62-1c-8.86,0-10.06,4.47-10.06,8.84,0,3.1.65,5.12,2.11,6.58s4.09,2.34,7.66,2.34H385a57,57,0,0,0,11-1.09l.6-.12V97.1l-.93.23A49.09,49.09,0,0,1,385.31,98.4Z"/><path class="cls-1" d="M409.91,91.1l-2.45-.21c-5.26-.45-5.7-1.2-5.7-2s0-1.77,5.79-1.77a53.23,53.23,0,0,1,9.86,1l.89.17V85l-.61-.11a53,53,0,0,0-9.9-1c-4.91,0-9.92.62-9.92,5.27,0,3.62,3.4,4.61,8.87,5l2.63.23c5.76.52,5.76,1.41,5.76,2.06,0,1.65-3.37,2-6.19,2a54.18,54.18,0,0,1-9.8-.9l-.9-.18v3.27l.62.11a55.83,55.83,0,0,0,9.84,1c4.8,0,10.32-.6,10.32-5.27C419,92.21,415.41,91.58,409.91,91.1Z"/><path class="cls-2" d="M0,74.88V5.16H13.07V74.88Zm70.9,0h-16L15.74,39.25,51.62,5.16H67.75v.31L33.3,39.25,70.9,74.47Z"/><path class="cls-2" d="M94.61,39.36H130c11.07,0,15.55-4.41,15.55-11.27v-.71c0-6.45-4.48-10.14-15.55-10.14H100.8V74.88H87.73V5.16h42.75c16.79,0,28.53,7.27,28.53,20.68v3.69c0,10.95-8.59,19-20.61,20.58l21.47,24.36v.41H144.22L122.37,50.41H94.61Z"/><path class="cls-2" d="M322.64,74.88l-7.06-14.74H278l-6.87,14.74H256L288.48,3.42H302.7l35.11,71.46Zm-39.31-26.1h26.81L296.59,20.52Z"/><path class="cls-2" d="M420.84,39.87c0,19.66-8.88,33.27-35.69,33.27H347.84V3.42h37.31C412,3.42,420.84,17,420.84,36.69Zm-13.27-3.18c0-15-6.58-21.7-23.09-21.6H360.91V61.47h23.57c16.51,0,23.09-6.55,23.09-21.6Z"/><path class="cls-3" d="M255.4,39.23a54.36,54.36,0,0,1-1.09,6.14c-4,14-16.17,28.61-32.15,31.26a32.39,32.39,0,0,1-7.79.33,30.44,30.44,0,0,1-18.49-8.53,30.11,30.11,0,0,1-7.46-12.83,30.49,30.49,0,0,1-.7-13.72c.14,1.65,1.37,13.22,11.24,19.57a24,24,0,0,0,12,3.72,30.88,30.88,0,0,0,12.05-3,32.2,32.2,0,0,0,16.72-19.82c.27-1,.45-1.75.56-2.29l.16-.83Z"/><path class="cls-4" d="M225.41,3.13c3.09.7,17.6,4.33,25.42,18a35.91,35.91,0,0,1,4.54,14.67l0,1.17c-4.77,0-9.55,0-14.32,0a35.27,35.27,0,0,0-2-16.91A35.63,35.63,0,0,0,225.41,3.13Z"/><path class="cls-5" d="M167.76,37.82a54.75,54.75,0,0,1,1.09-6.14c4-14,16.18-28.6,32.15-31.25A31.93,31.93,0,0,1,208.8.1a30.35,30.35,0,0,1,18.48,8.52,30.39,30.39,0,0,1,8.17,26.55C235.3,33.53,234.08,22,224.2,15.6a24.11,24.11,0,0,0-12-3.72,31.16,31.16,0,0,0-12,3,32.28,32.28,0,0,0-16.72,19.83c-.27.94-.44,1.74-.55,2.28l-.16.83Z"/><path class="cls-6" d="M197.75,73.93c-3.09-.7-17.59-4.34-25.42-18a35.83,35.83,0,0,1-4.54-14.67l0-1.17c4.78,0,9.55,0,14.33,0a35.09,35.09,0,0,0,2,16.91A35.72,35.72,0,0,0,197.75,73.93Z"/><rect class="cls-2" x="56.89" y="35.8" width="19.56" height="8.75"/></g></g></svg>