<svg width="60" height="60" viewBox="0 0 60 60" fill="none" xmlns="http://www.w3.org/2000/svg">
<path d="M58.4189 22.2465L31.804 0.919102C31.043 0.310466 30.0961 -0.0141305 29.1243 0.000472028C28.1525 0.0150745 27.2157 0.367977 26.473 0.999207L1.48426 22.3266C0.82816 22.8861 0.358606 23.635 0.139086 24.472C-0.0804347 25.309 -0.0393198 26.1936 0.256882 27.0063C0.553084 27.819 1.09005 28.5205 1.79519 29.0159C2.50033 29.5113 3.33961 29.7767 4.19947 29.7762H9.74423V55.7746C9.74423 56.8952 10.1864 57.97 10.9735 58.7624C11.7607 59.5548 12.8282 60 13.9413 60H47.031C48.1441 60 49.2117 59.5548 49.9988 58.7624C50.7859 57.97 51.2281 56.8952 51.2281 55.7746V29.7762H55.8032C56.6735 29.7761 57.5223 29.5037 58.232 28.9966C58.9418 28.4895 59.4774 27.7727 59.7647 26.9457C60.052 26.1186 60.0768 25.222 59.8357 24.3801C59.5946 23.5382 59.0995 22.7926 58.4189 22.2465Z" fill="white"/>
</svg>
