<svg width="58" height="49" viewBox="0 0 58 49" fill="none" xmlns="http://www.w3.org/2000/svg">
<path d="M49.8418 9.26562C52.3 13.927 54.7686 18.5935 57.248 23.2646L57.6377 23.999H52.3066C52.3081 25.0644 52.2453 26.1293 52.1191 27.1875C51.8872 29.1369 50.948 37.0154 44.6963 42.8721L44.3945 43.1494C38.0535 48.8757 30.3715 48.9526 26.2393 48.998H25.6318C22.5998 48.9709 19.5843 48.5346 16.6689 47.7012L16.2676 47.5869L16.3086 47.1709C16.4513 45.7312 16.5994 44.2967 16.7471 42.8584L16.8057 42.2891L17.3623 42.4229C18.1237 42.6065 19.2082 42.8361 20.5098 43.0254L21.5918 43.1797C27.1008 43.9511 33.984 44.6011 39.7324 40.3174L40.0693 40.0605C43.4963 37.3751 45.3324 33.7569 46.3135 30.667C47.3262 27.4771 47.415 24.8878 47.415 24.5645V24.0371C47.4147 24.0163 47.4136 23.9954 47.4131 23.9746H40.9668L41.3672 23.2363C43.9 18.5679 46.4306 13.9088 48.96 9.25977L49.4062 8.44043L49.8418 9.26562ZM31.2344 0C34.1839 0.0299347 37.1163 0.473736 39.9492 1.31836L40.3457 1.43652L40.3037 1.84766C40.1587 3.28046 40.0174 4.71519 39.8789 6.15137L39.8232 6.72754L39.2617 6.58887C38.5169 6.40509 37.4683 6.17641 36.2002 5.9873V5.98633C30.6914 5.17391 23.4936 4.12844 17.5654 8.68066L17.5645 8.68164C14.0266 11.391 12.158 15.1429 11.1748 18.334C10.192 21.524 10.1065 24.1132 10.1064 24.4385V24.999H15.6182L15.2529 25.7236C12.8994 30.399 10.538 35.0664 8.16797 39.7256L7.71484 40.6172L7.27344 39.7197C4.98014 35.0521 2.67486 30.3861 0.358398 25.7217L0 24.999H5.30664C5.305 23.9323 5.36562 22.8662 5.48828 21.8066V21.8057C5.72171 19.8293 6.65447 11.7318 12.9922 5.84863L13.5732 5.32812C19.6157 0.113117 26.749 0.0439906 30.6436 0L31.2344 0Z" fill="white"/>
</svg>
