<svg width="37" height="38" viewBox="0 0 37 38" fill="none" xmlns="http://www.w3.org/2000/svg">
<path d="M34.7322 38L21.215 24.1171C20.1389 25.0296 18.9014 25.7437 17.5025 26.2594C16.1036 26.7752 14.6564 27.0331 13.161 27.0331C9.48261 27.0331 6.36951 25.7251 3.8217 23.1092C1.2739 20.4933 0 17.2969 0 13.5198C0 9.74318 1.27354 6.54561 3.82063 3.92715C6.36771 1.30905 9.4801 0 13.1578 0C16.8351 0 19.9486 1.30831 22.4982 3.92494C25.0474 6.54156 26.322 9.73876 26.322 13.5165C26.322 15.095 26.0641 16.6027 25.5483 18.0394C25.0322 19.476 24.3437 20.7256 23.4828 21.788L37 35.6703L34.7322 38ZM13.161 23.7182C15.9341 23.7182 18.2828 22.7298 20.2072 20.753C22.132 18.7767 23.0943 16.3645 23.0943 13.5165C23.0943 10.6686 22.132 8.25638 20.2072 6.28001C18.2828 4.30326 15.9341 3.31489 13.161 3.31489C10.388 3.31489 8.03923 4.30326 6.11484 6.28001C4.19008 8.25638 3.22771 10.6686 3.22771 13.5165C3.22771 16.3645 4.19008 18.7767 6.11484 20.753C8.03923 22.7298 10.388 23.7182 13.161 23.7182Z" fill="white"/>
</svg>
