<svg width="60" height="54" viewBox="0 0 60 54" fill="none" xmlns="http://www.w3.org/2000/svg">
<path d="M59.321 13.9514C58.2475 12.8606 56.0527 12.9044 53.8276 13.9514L48.0691 19.7558C47.7087 20.1192 47.2809 20.4074 46.81 20.604C46.3391 20.8007 45.8343 20.9019 45.3246 20.9019C44.8149 20.9019 44.3102 20.8007 43.8393 20.604C43.3684 20.4074 42.9405 20.1192 42.5801 19.7558L40.4332 17.5962C39.7113 16.8584 39.3065 15.8638 39.3065 14.8276C39.3065 13.7913 39.7113 12.7967 40.4332 12.0589L46.196 6.25451C46.3003 6.00043 47.8257 2.26806 46.196 0.721672C45.7616 0.342074 45.2177 0.113252 44.6445 0.0689513C42.5323 -0.198272 37.5127 0.143412 33.0015 4.1649C31.8281 5.20751 28.8902 7.82717 27.9123 11.9932C27.6385 13.1629 27.5994 15.2875 27.5777 19.4842C27.5777 21.7666 27.5777 23.6678 27.5777 25.0214L25.4047 27.2118L23.3142 25.1047L23.4924 24.9295C24.957 23.4532 25.1743 21.2847 23.9792 20.08L9.59821 5.54922C8.40306 4.34452 6.25178 4.56794 4.78717 6.03986L1.25821 9.60137C-0.206395 11.0733 -0.423697 13.2461 0.771457 14.4464L15.1698 28.9641C16.365 30.1644 18.5162 29.9453 19.9765 28.4691L20.1547 28.2938L22.2451 30.3966L9.36352 43.381C8.63529 44.1154 8.2262 45.1112 8.2262 46.1496C8.2262 47.188 8.63529 48.1838 9.36352 48.9182L11.3714 50.9421C11.7318 51.3054 12.1596 51.5936 12.6305 51.7903C13.1015 51.9869 13.6062 52.0881 14.1159 52.0881C14.6256 52.0881 15.1303 51.9869 15.6012 51.7903C16.0721 51.5936 16.5 51.3054 16.8604 50.9421L29.742 37.9577L45.1573 53.4917C45.291 53.6271 45.465 53.7148 45.6527 53.7413L47.3173 53.9954C47.5202 54.0119 47.7243 53.9838 47.9154 53.9131C48.1066 53.8423 48.2802 53.7306 48.4244 53.5857C48.5686 53.4408 48.6798 53.2661 48.7506 53.0737C48.8213 52.8812 48.8498 52.6756 48.834 52.471L48.5776 50.7888C48.5525 50.6001 48.467 50.4247 48.3342 50.2893L32.9233 34.7554L35.0963 32.565C39.2594 33.0756 43.4723 33.0078 47.6171 32.3635C50.7168 31.4685 53.4957 29.6939 55.6225 27.2512C58.0867 24.3862 58.8168 21.5563 59.3731 19.4185C60.0163 17.0223 60.4031 15.0685 59.321 13.9514Z" fill="white"/>
</svg>
